<?xml version="1.0" encoding="UTF-8" standalone="no"?><!DOCTYPE svg PUBLIC "-//W3C//DTD SVG 1.1//EN" "http://www.w3.org/Graphics/SVG/1.1/DTD/svg11.dtd"><svg width="100%" height="100%" viewBox="0 0 698 698" version="1.1" xmlns="http://www.w3.org/2000/svg" xmlns:xlink="http://www.w3.org/1999/xlink" xml:space="preserve" xmlns:serif="http://www.serif.com/" style="fill-rule:evenodd;clip-rule:evenodd;stroke-linejoin:round;stroke-miterlimit:2;"><g><path d="M697.822,348.911c0,-192.698 -156.212,-348.911 -348.911,-348.911l-0,-0c-192.698,0 -348.911,156.213 -348.911,348.911l-0,0.021c0,192.698 156.213,348.911 348.911,348.911l0,0c192.699,0 348.911,-156.213 348.911,-348.911l0,-0.021Z" style="fill:#fff;"/><circle cx="348.911" cy="348.922" r="306.56" style="fill:#406eff;"/><ellipse cx="348.911" cy="343.709" rx="227.543" ry="224.15" style="fill:#fff;"/><path d="M399.217,468.08c0,-1.593 -0.82,-3.073 -2.171,-3.917c-1.351,-0.844 -3.041,-0.932 -4.472,-0.233c-8.726,4.259 -24.12,11.773 -34.224,16.706c-6.252,3.051 -13.564,3.041 -19.807,-0.029c-9.842,-4.84 -24.672,-12.133 -33.22,-16.336c-1.446,-0.711 -3.156,-0.626 -4.524,0.226c-1.367,0.851 -2.198,2.348 -2.198,3.959c-0,0.001 -0,0.002 -0,0.004c-0,10.657 6.057,20.389 15.62,25.093c6.773,3.332 14.622,7.193 21.12,10.39c8.429,4.147 18.31,4.117 26.713,-0.08c6.683,-3.337 14.809,-7.396 21.757,-10.865c9.441,-4.716 15.406,-14.363 15.406,-24.916c0,-0.001 0,-0.001 0,-0.002Z" style="fill:#406eff;fill-rule:nonzero;"/><path d="M450.168,396.512c-0,-1.582 -0.816,-3.053 -2.158,-3.891c-1.342,-0.838 -3.021,-0.926 -4.443,-0.232c-17.394,8.491 -64.563,31.515 -85.216,41.597c-6.252,3.052 -13.564,3.041 -19.807,-0.029c-20.431,-10.047 -66.813,-32.855 -84.17,-41.39c-1.445,-0.711 -3.155,-0.625 -4.523,0.226c-1.367,0.851 -2.199,2.348 -2.199,3.959c0,0.001 0,0.002 0,0.003c0,10.658 6.058,20.389 15.622,25.093c19.785,9.732 53.534,26.331 72.146,35.485c8.384,4.124 18.209,4.117 26.588,-0.02c18.73,-9.248 52.821,-26.081 72.674,-35.883c9.483,-4.682 15.486,-14.341 15.486,-24.917l-0,-0.001Z" style="fill:#406eff;fill-rule:nonzero;"/><path d="M374.15,370.836c0,3.214 -1.832,6.148 -4.72,7.559c-4.622,2.257 -11.613,5.672 -16.163,7.894c-2.849,1.392 -6.181,1.387 -9.026,-0.012c-4.481,-2.203 -11.324,-5.567 -15.871,-7.803c-2.877,-1.415 -4.7,-4.342 -4.7,-7.549c-0,-12.964 -0,-46.595 -0,-61.866c-0,-1.666 0.859,-3.214 2.274,-4.096c1.414,-0.881 3.183,-0.97 4.679,-0.236c4.017,1.972 8.999,4.417 12.734,6.25c3.446,1.692 7.481,1.69 10.925,-0.005c3.78,-1.86 8.842,-4.35 12.911,-6.352c1.496,-0.736 3.266,-0.648 4.681,0.233c1.416,0.881 2.276,2.43 2.276,4.097l0,61.886Zm25.334,-74.873c-0,-4.242 -2.411,-8.115 -6.218,-9.987c-4.406,-2.167 -10.236,-5.034 -14.317,-7.041c-3.098,-1.523 -6.726,-1.523 -9.823,0c-4.292,2.111 -10.515,5.172 -14.963,7.359c-3.446,1.695 -7.483,1.696 -10.929,0.002c-4.446,-2.185 -10.666,-5.242 -14.955,-7.351c-3.096,-1.521 -6.723,-1.521 -9.819,0.001c-3.979,1.956 -9.61,4.724 -13.905,6.835c-3.807,1.872 -6.219,5.745 -6.219,9.988l-0,84.188c-0,5.285 3.005,10.111 7.748,12.442c10.06,4.944 27.414,13.473 36.614,17.995c3.872,1.903 8.408,1.902 12.279,-0.003c9.229,-4.54 26.672,-13.122 36.763,-18.086c4.741,-2.333 7.744,-7.157 7.744,-12.44c-0,-19.415 -0,-66.213 -0,-83.902Z" style="fill:#faa537;fill-rule:nonzero;"/><path d="M439.293,244.436c-8.861,4.359 -14.473,13.376 -14.473,23.25l-0,18.554c-0,9.325 5.35,17.823 13.759,21.853c2.136,1.024 4.231,2.028 6.039,2.895c1.2,0.575 2.612,0.494 3.739,-0.216c1.126,-0.709 1.81,-1.947 1.81,-3.278c-0,-8.474 -0,-23.827 -0,-33.887c-0,-5.992 3.406,-11.463 8.783,-14.108c2.313,-1.138 4.817,-2.37 7.161,-3.523c2.019,-0.994 4.408,-0.874 6.318,0.315c1.91,1.189 3.071,3.28 3.071,5.53c0,15.232 0,43.171 0,56.761c0,4.794 -2.736,9.168 -7.047,11.264c-7.846,3.817 -20.699,10.068 -30.418,14.795c-8.049,3.915 -13.165,12.075 -13.182,21.026c-0.003,1.403 -0.006,2.768 -0.008,4.022c-0.003,1.359 0.697,2.623 1.85,3.342c1.153,0.72 2.596,0.792 3.815,0.192c11.605,-5.71 38.38,-18.885 55.34,-27.23c9.174,-4.514 14.984,-13.849 14.984,-24.073c0,-18.454 0,-47.986 0,-66.321c0,-10.043 -5.709,-19.212 -14.721,-23.643c-0.076,-0.038 -0.152,-0.075 -0.228,-0.113c-6.622,-3.256 -14.381,-3.255 -21.003,0.003c-7.407,3.644 -17.425,8.573 -25.589,12.59Z" style="fill:#ffa737;fill-rule:nonzero;"/><path d="M211.614,231.803c-8.954,4.402 -14.626,13.512 -14.626,23.489l0,66.72c0,10.253 5.844,19.61 15.057,24.108c16.974,8.289 43.71,21.344 55.286,26.996c1.218,0.595 2.656,0.52 3.806,-0.198c1.15,-0.718 1.848,-1.978 1.848,-3.333c0,-1.176 0,-2.45 0,-3.759c0,-8.93 -5.076,-17.084 -13.089,-21.025c-9.759,-4.8 -22.709,-11.17 -30.577,-15.04c-4.283,-2.108 -6.997,-6.467 -6.997,-11.241l-0,-56.558c-0,-2.248 1.16,-4.338 3.068,-5.528c1.908,-1.189 4.295,-1.311 6.314,-0.321c2.338,1.147 4.837,2.372 7.146,3.504c5.387,2.641 8.801,8.118 8.801,14.118c0,10.032 0,25.317 0,33.802c0,1.338 0.691,2.582 1.827,3.289c1.136,0.707 2.557,0.778 3.758,0.187c1.859,-0.914 4.018,-1.977 6.213,-3.056c8.287,-4.077 13.536,-12.509 13.536,-21.745c0,-5.796 0,-12.433 0,-18.324c0,-9.875 -5.614,-18.892 -14.475,-23.251c-8.318,-4.091 -18.572,-9.134 -26.09,-12.832c-6.56,-3.227 -14.245,-3.227 -20.806,-0.002c0,0 -0,0 -0,0Z" style="fill:#ffa737;fill-rule:nonzero;"/><path d="M441.993,210.239c1.522,0.748 2.486,2.297 2.486,3.993c-0,1.695 -0.964,3.244 -2.486,3.992c-18.284,8.99 -62.662,30.809 -82.877,40.749c-6.518,3.204 -14.156,3.196 -20.667,-0.024c-20.172,-9.976 -64.424,-31.86 -82.649,-40.873c-1.519,-0.751 -2.479,-2.299 -2.477,-3.994c0.002,-1.694 0.966,-3.24 2.486,-3.987c2.2,-1.082 4.608,-2.265 6.901,-3.392c6.328,-3.111 13.741,-3.111 20.069,0.001c14.187,6.977 40.024,19.684 54.806,26.954c7.046,3.465 15.302,3.465 22.348,-0c14.782,-7.27 40.619,-19.975 54.807,-26.952c6.33,-3.113 13.745,-3.112 20.075,0.001c2.382,1.172 4.894,2.408 7.178,3.532Z" style="fill:#faa537;fill-rule:nonzero;"/><path d="M346.041,187.973c-14.076,-6.926 -30.569,-6.926 -44.645,-0c-0,0 -0.001,0 -0.001,0.001c-0.564,0.277 -0.92,0.85 -0.92,1.478c-0,0.628 0.357,1.202 0.92,1.479c6.6,3.247 22.693,11.163 34.292,16.869c8.247,4.057 17.91,4.057 26.158,0.001c11.683,-5.746 27.947,-13.746 34.586,-17.011c0.563,-0.277 0.919,-0.85 0.92,-1.477c-0,-0.627 -0.357,-1.2 -0.92,-1.477c0,-0 -0,-0 -0,-0.001c-14.024,-6.901 -30.452,-6.927 -44.497,-0.069c-0.295,0.144 -0.575,0.281 -0.836,0.408c-1.471,0.719 -3.192,0.716 -4.662,-0.007c-0.127,-0.062 -0.259,-0.127 -0.395,-0.194Z" style="fill:#faa537;fill-rule:nonzero;"/><g><path d="M198.347,551.338l-4.983,7.074l12.26,8.822l-3.48,5.008l-12.339,-8.902l-6.882,9.776l-6.17,-4.451l18.984,-26.706l20.091,14.466l-3.48,4.928l-14.001,-10.015Zm31.798,41.966l-13.605,-6.835l-5.695,5.007l-6.961,-3.497l27.685,-22.811l6.644,3.338l-1.503,35.926l-7.119,-3.577l0.554,-7.551Zm0.395,-6.279l0.95,-13.591l-10.204,8.981l9.254,4.61Zm49.753,36.244c-1.424,0.874 -2.926,1.431 -4.587,1.59c-1.662,0.238 -3.323,-0 -5.063,-0.557c-2.294,-0.795 -4.192,-1.987 -5.695,-3.576c-1.582,-1.59 -3.085,-4.054 -4.667,-7.392c-2.689,-1.351 -4.904,-3.021 -6.644,-5.246c-1.74,-2.226 -2.768,-4.61 -3.243,-7.312c-0.475,-2.782 -0.237,-5.485 0.633,-8.266c1.028,-3.1 2.689,-5.564 4.904,-7.551c2.294,-1.987 4.983,-3.179 7.989,-3.736c3.085,-0.556 6.17,-0.318 9.413,0.795c3.243,1.033 5.932,2.702 7.989,5.007c2.135,2.226 3.559,4.849 4.192,7.79c0.712,2.94 0.474,5.961 -0.475,8.981c-1.265,3.656 -3.322,6.438 -6.249,8.504c-2.926,2.067 -6.169,3.1 -9.887,3.021c0.475,1.033 1.028,1.828 1.582,2.384c0.554,0.636 1.266,1.033 2.057,1.272c1.977,0.636 3.875,0.477 5.853,-0.636l1.898,4.928Zm-21.989,-28.375c-0.633,1.908 -0.791,3.815 -0.396,5.643c0.317,1.749 1.108,3.338 2.294,4.69c1.187,1.351 2.69,2.305 4.509,2.861c1.819,0.636 3.638,0.795 5.379,0.397c1.819,-0.318 3.322,-1.112 4.666,-2.384c1.345,-1.192 2.373,-2.782 3.006,-4.689c0.633,-1.988 0.791,-3.816 0.396,-5.644c-0.317,-1.748 -1.108,-3.338 -2.294,-4.689c-1.187,-1.351 -2.69,-2.305 -4.509,-2.941c-1.898,-0.556 -3.638,-0.715 -5.458,-0.318c-1.74,0.318 -3.243,1.113 -4.587,2.305c-1.345,1.272 -2.373,2.861 -3.006,4.769Zm42.238,-5.325l7.436,1.351l-6.091,32.269l-7.435,-1.351l6.09,-32.269Zm50.307,5.484l-2.531,32.746l-7.514,-0.556l1.028,-13.432l-14.792,-1.113l-1.028,13.432l-7.593,-0.636l2.531,-32.746l7.514,0.636l-0.949,12.876l14.791,1.113l0.95,-12.876l7.593,0.556Zm40.261,-4.054l3.797,32.667l-6.17,0.716l-18.509,-17.884l2.373,19.791l-7.435,0.875l-3.797,-32.667l6.17,-0.716l18.509,17.963l-2.294,-19.87l7.356,-0.875Zm39.154,16.93l-14.633,4.133l-0.87,7.551l-7.515,2.066l5.3,-35.607l7.198,-1.987l22.859,27.739l-7.672,2.146l-4.667,-6.041Zm-3.797,-4.928l-8.384,-10.73l-1.661,13.512l10.045,-2.782Zm31.165,2.782c-1.186,0.477 -2.373,0.477 -3.48,-0.079c-1.187,-0.477 -1.978,-1.352 -2.373,-2.623c-0.554,-1.193 -0.475,-2.385 -0,-3.498c0.553,-1.033 1.424,-1.828 2.61,-2.305c1.186,-0.476 2.294,-0.476 3.401,0c1.108,0.477 1.978,1.352 2.452,2.623c0.396,1.193 0.396,2.385 -0.079,3.498c-0.553,1.112 -1.344,1.907 -2.531,2.384Zm2.769,-37.674l6.723,-3.338l14.475,29.487l-6.803,3.338l-14.395,-29.487Zm17.006,-8.028l12.023,-8.743c2.926,-2.146 5.853,-3.418 8.859,-3.894c3.005,-0.557 5.853,-0.239 8.463,0.874c2.69,1.113 4.983,3.02 6.882,5.723c1.898,2.622 3.006,5.404 3.243,8.266c0.158,2.94 -0.396,5.722 -1.819,8.425c-1.424,2.702 -3.56,5.086 -6.407,7.232l-12.023,8.743l-19.221,-26.626Zm27.289,13.035c2.61,-1.907 4.192,-4.212 4.746,-6.835c0.474,-2.623 -0.159,-5.246 -1.978,-7.789c-1.819,-2.544 -4.113,-3.975 -6.723,-4.292c-2.611,-0.318 -5.3,0.476 -7.91,2.384l-5.616,4.054l11.865,16.532l5.616,-4.054Z" style="fill:#fff;fill-rule:nonzero;"/><path d="M100.028,458.298l4.35,9.617l-5.616,2.544l-11.706,-26.15l5.616,-2.543l4.271,9.617l24.204,-10.968l3.085,6.915l-24.204,10.968Zm1.819,-55.955l5.774,-1.748l7.277,24.4l-31.402,9.379l-7.04,-23.765l5.854,-1.748l4.904,16.532l6.802,-2.067l-4.35,-14.624l5.616,-1.669l4.35,14.624l7.277,-2.146l-5.062,-17.168Zm0.949,-30.362l-8.147,7.551l0.079,0.397l0.87,6.518l9.018,-1.272l1.028,7.551l-32.351,4.53l-1.978,-14.068c-0.395,-2.941 -0.237,-5.484 0.396,-7.71c0.711,-2.305 1.819,-4.133 3.401,-5.484c1.582,-1.431 3.638,-2.305 6.011,-2.623c2.452,-0.318 4.588,0 6.486,0.875c1.899,0.953 3.481,2.384 4.667,4.371l9.413,-8.743l1.107,8.107Zm-20.644,3.02c-1.82,0.239 -3.085,1.034 -3.876,2.385c-0.87,1.272 -1.108,3.1 -0.791,5.325l0.87,6.12l11.311,-1.51l-0.87,-6.199c-0.317,-2.226 -1.028,-3.895 -2.215,-4.928c-1.107,-1.034 -2.61,-1.431 -4.429,-1.193Zm11.785,-40.058l0.238,15.26l7.039,2.782l0.079,7.789l-32.905,-14.227l-0.079,-7.471l32.51,-15.102l0.079,7.949l-6.961,3.02Zm-5.695,2.464l-12.418,5.325l12.576,5.087l-0.158,-10.412Zm-14.158,-54.048l32.272,5.326l-1.029,6.199l-22.226,12.876l19.616,3.259l-1.265,7.392l-32.193,-5.326l0.949,-6.199l22.305,-12.876l-19.616,-3.259l1.187,-7.392Zm25.39,-30.918l2.215,-6.597l12.577,4.372c0.632,2.146 0.949,4.451 0.87,6.914c-0.079,2.385 -0.475,4.769 -1.266,6.995c-1.107,3.259 -2.847,5.881 -5.062,8.027c-2.294,2.067 -4.825,3.418 -7.752,4.054c-3.006,0.636 -5.932,0.397 -9.017,-0.715c-3.085,-1.034 -5.537,-2.703 -7.514,-5.008c-1.899,-2.305 -3.085,-5.007 -3.56,-8.107c-0.474,-3.1 -0.158,-6.199 0.949,-9.458c0.949,-2.782 2.294,-5.087 3.955,-6.994c1.661,-1.829 3.639,-3.259 5.933,-4.133l2.61,6.04c-3.085,1.431 -5.142,3.656 -6.249,6.836c-0.712,1.987 -0.87,3.894 -0.554,5.722c0.238,1.828 1.029,3.418 2.215,4.769c1.187,1.431 2.769,2.385 4.746,3.1c1.898,0.636 3.718,0.795 5.537,0.477c1.819,-0.318 3.401,-1.113 4.746,-2.305c1.345,-1.272 2.373,-2.862 3.006,-4.769c0.791,-2.067 0.949,-4.133 0.632,-6.041l-9.017,-3.179Zm-8.068,-23.209l3.164,-6.835l29.741,13.75l-3.164,6.915l-29.741,-13.83Zm51.81,-25.672c-2.532,3.974 -5.537,6.438 -9.097,7.233c-3.559,0.874 -7.356,-0 -11.469,-2.544l-15.503,-9.855l4.034,-6.438l15.266,9.696c4.983,3.1 8.701,2.623 11.311,-1.51c1.265,-2.066 1.661,-3.974 1.107,-5.802c-0.553,-1.828 -2.135,-3.497 -4.667,-5.087l-15.266,-9.696l3.955,-6.359l15.504,9.776c4.113,2.623 6.486,5.643 7.356,9.3c0.791,3.576 -0.079,7.312 -2.531,11.286Zm34.091,-41.966l-14.317,-13.433l5.142,18.122l-2.373,2.544l-17.956,-3.895l13.922,13.273l-4.904,5.167l-23.73,-22.573l4.271,-4.531l23.176,5.008l-6.486,-22.811l4.271,-4.531l23.809,22.493l-4.825,5.167Zm25.391,-30.044l-12.102,9.22l1.977,7.391l-6.17,4.69l-8.226,-34.972l5.933,-4.531l31.481,17.168l-6.328,4.849l-6.565,-3.815Zm-5.379,-3.18l-11.707,-6.835l3.481,13.194l8.226,-6.359Zm14.87,-25.831l-9.096,5.087l-3.006,-5.405l24.837,-13.909l3.006,5.405l-9.096,5.086l12.893,23.288l-6.565,3.736l-12.973,-23.288Zm36.544,-24.957l14.238,-4.451c3.322,-1.033 6.565,-1.351 9.571,-0.874c3.005,0.476 5.616,1.669 7.751,3.576c2.215,1.908 3.797,4.451 4.746,7.551c0.949,3.179 1.108,6.12 0.396,8.902c-0.712,2.861 -2.136,5.325 -4.351,7.392c-2.215,2.146 -4.983,3.735 -8.384,4.769l-14.159,4.53l-9.808,-31.395Zm21.752,21.062c3.164,-0.953 5.379,-2.622 6.644,-5.007c1.345,-2.305 1.503,-4.928 0.554,-7.948c-0.87,-3.02 -2.531,-5.087 -4.983,-6.2c-2.373,-1.192 -5.142,-1.271 -8.226,-0.318l-6.645,2.067l6.091,19.473l6.565,-2.067Zm51.098,-11.127l0.949,6.041l-24.995,4.133l-5.3,-32.429l24.362,-4.053l1.029,6.04l-17.006,2.862l1.186,6.994l14.95,-2.464l0.949,5.802l-14.95,2.544l1.266,7.471l17.56,-2.941Zm38.6,-27.898l0.395,32.826l-6.169,0.079l-16.611,-19.711l0.316,19.95l-7.514,0.079l-0.396,-32.826l6.249,-0.079l16.532,19.711l-0.317,-19.95l7.515,-0.079Zm34.408,19.87l6.881,0.954l-1.898,13.194c-1.899,1.113 -4.113,1.828 -6.486,2.226c-2.452,0.397 -4.825,0.397 -7.119,0.079c-3.401,-0.477 -6.328,-1.59 -8.78,-3.418c-2.531,-1.828 -4.351,-4.133 -5.458,-6.915c-1.186,-2.702 -1.582,-5.722 -1.107,-8.981c0.395,-3.179 1.582,-5.961 3.48,-8.346c1.898,-2.304 4.271,-4.053 7.198,-5.086c2.927,-1.034 6.091,-1.352 9.413,-0.875c2.847,0.398 5.378,1.272 7.593,2.544c2.136,1.271 3.876,2.941 5.221,5.007l-5.458,3.736c-1.978,-2.782 -4.588,-4.372 -7.831,-4.849c-2.056,-0.238 -3.955,-0.079 -5.695,0.557c-1.74,0.636 -3.164,1.669 -4.271,3.179c-1.108,1.431 -1.82,3.179 -2.057,5.246c-0.316,1.987 -0.079,3.815 0.554,5.563c0.712,1.67 1.74,3.1 3.243,4.213c1.424,1.113 3.164,1.828 5.22,2.067c2.136,0.317 4.193,0.158 6.012,-0.557l1.345,-9.538Zm35.989,19.235l-14.554,-4.292l-4.746,5.961l-7.514,-2.225l23.176,-27.422l7.198,2.067l4.825,35.687l-7.594,-2.225l-0.791,-7.551Zm-0.712,-6.279l-1.423,-13.512l-8.543,10.651l9.966,2.861Zm56.002,3.179l-15.187,29.011l-5.537,-2.861l-5.141,-25.276l-9.255,17.645l-6.644,-3.497l15.266,-29.09l5.537,2.941l5.142,25.275l9.254,-17.645l6.565,3.497Zm16.532,51.107c-2.61,-2.067 -4.509,-4.531 -5.774,-7.313c-1.266,-2.861 -1.661,-5.722 -1.266,-8.743c0.316,-2.94 1.503,-5.722 3.559,-8.266c1.978,-2.623 4.351,-4.451 7.119,-5.484c2.848,-1.113 5.695,-1.351 8.78,-0.874c3.006,0.556 5.774,1.828 8.464,3.974c2.215,1.749 3.955,3.736 5.141,5.882c1.187,2.225 1.819,4.53 1.899,6.994l-6.566,0.556c-0.237,-3.417 -1.582,-6.12 -4.192,-8.107c-1.582,-1.272 -3.243,-2.066 -5.062,-2.305c-1.819,-0.318 -3.56,-0.079 -5.221,0.636c-1.661,0.715 -3.084,1.828 -4.35,3.418c-1.266,1.589 -2.057,3.338 -2.294,5.166c-0.316,1.749 -0.079,3.497 0.633,5.246c0.712,1.669 1.819,3.1 3.401,4.371c2.61,1.987 5.537,2.703 8.938,1.987l1.029,6.597c-2.373,0.557 -4.825,0.477 -7.278,-0.159c-2.372,-0.635 -4.745,-1.828 -6.96,-3.576Zm35.752,23.049l-10.599,-10.968l-7.04,2.861l-5.378,-5.643l33.617,-12.32l5.141,5.405l-13.289,33.382l-5.537,-5.722l3.085,-6.995Zm2.452,-5.722l5.379,-12.479l-12.656,5.007l7.277,7.472Zm47.143,28.931l-26.814,18.758l-4.351,-6.2l10.995,-7.71l-8.464,-12.24l-10.994,7.71l-4.351,-6.279l26.815,-18.758l4.35,6.279l-10.599,7.392l8.463,12.24l10.6,-7.392l4.35,6.2Zm-5.932,43.238l-7.119,-13.433l-7.594,0.795l-3.638,-6.915l35.673,-2.622l3.56,6.596l-21.911,28.534l-3.717,-7.074l4.746,-5.881Zm3.955,-4.849l8.621,-10.491l-13.526,1.351l4.905,9.14Zm11.073,33.065l-11.073,3.497l-2.215,-7.233l11.153,-3.577l16.215,-18.439l2.452,7.709l-11.232,12.797l16.452,3.974l2.215,7.153l-23.967,-5.881Zm4.113,38.946l-2.452,-15.022l-7.356,-1.749l-1.265,-7.63l34.645,9.061l1.186,7.392l-29.899,19.87l-1.265,-7.869l6.406,-4.053Zm5.3,-3.259l11.548,-7.233l-13.209,-3.02l1.661,10.253Zm23.097,33.541l0.158,7.551l-32.747,0.477l-0.079,-7.63l32.668,-0.398Zm0.158,20.347l-0.633,7.551l-26.419,-1.987l-1.265,16.373l-6.17,-0.397l1.819,-24.004l32.668,2.464Zm-41.843,56.989l19.142,4.292l-13.605,-13.035l0.712,-3.339l17.48,-5.881l-18.746,-4.213l1.582,-6.994l31.877,7.233l-1.345,6.12l-22.543,7.551l17.164,16.293l-1.344,6.12l-31.956,-7.233l1.582,-6.914Zm-11.548,29.328c1.977,-4.292 4.666,-7.074 8.068,-8.345c3.48,-1.272 7.356,-0.875 11.706,1.112l16.611,7.71l-3.164,6.915l-16.373,-7.551c-5.3,-2.464 -9.018,-1.51 -10.995,2.941c-1.028,2.146 -1.108,4.054 -0.396,5.802c0.791,1.749 2.532,3.259 5.3,4.531l16.373,7.55l-3.164,6.836l-16.61,-7.71c-4.351,-1.987 -7.119,-4.769 -8.385,-8.186c-1.265,-3.498 -0.949,-7.313 1.029,-11.605Z" style="fill:#fff;fill-rule:nonzero;"/><path d="M159.516,498.544c-0.08,0 -3.107,13.768 -1.753,24.014c1.355,10.327 6.373,13.368 6.612,13.368c0.239,-0.08 4.302,-4.242 2.948,-14.568c-1.275,-10.326 -7.648,-22.814 -7.807,-22.814Zm378.711,0c0.159,0 3.107,13.768 1.832,24.014c-1.354,10.327 -6.373,13.368 -6.612,13.368c-0.239,-0.08 -4.302,-4.242 -3.027,-14.568c1.354,-10.326 7.727,-22.814 7.807,-22.814Zm26.527,31.059c0,-0.08 -14.02,0.32 -23.58,4.162c-9.639,3.842 -11.312,9.446 -11.232,9.686c0.08,0.24 5.178,3.202 14.737,-0.641c9.639,-3.842 20.075,-13.127 20.075,-13.207Zm-14.02,-47.148c0.079,-0 3.106,13.688 1.752,24.014c-1.274,10.326 -6.293,13.368 -6.532,13.288c-0.319,-0 -4.381,-4.243 -3.027,-14.489c1.354,-10.326 7.727,-22.813 7.807,-22.813Zm26.527,30.978c-0.08,-0.08 -14.02,0.4 -23.66,4.243c-9.639,3.762 -11.311,9.445 -11.232,9.685c0.16,0.24 5.178,3.122 14.817,-0.72c9.639,-3.842 20.075,-13.128 20.075,-13.208Zm-444.193,16.17c0,-0.08 13.941,0.32 23.58,4.162c9.639,3.842 11.312,9.446 11.232,9.686c-0.079,0.24 -5.178,3.202 -14.817,-0.641c-9.559,-3.842 -20.074,-13.127 -19.995,-13.207Zm14.021,-47.148c-0.08,-0 -3.107,13.688 -1.832,24.014c1.354,10.326 6.372,13.368 6.611,13.288c0.239,-0 4.302,-4.243 3.028,-14.489c-1.355,-10.326 -7.728,-22.813 -7.807,-22.813Zm-26.528,30.978c0.08,-0.08 14.021,0.4 23.66,4.243c9.559,3.762 11.232,9.445 11.153,9.685c-0.08,0.24 -5.099,3.122 -14.738,-0.72c-9.639,-3.842 -20.075,-13.128 -20.075,-13.208Zm0.08,-32.499c-0.08,0.08 3.426,13.688 9.321,22.253c5.894,8.565 11.71,8.965 11.949,8.805c0.159,-0.16 1.912,-5.763 -3.983,-14.328c-5.895,-8.565 -17.207,-16.73 -17.287,-16.73Zm456.54,-0c0.08,0.08 -3.505,13.688 -9.32,22.253c-5.895,8.565 -11.71,8.965 -11.949,8.805c-0.16,-0.16 -1.912,-5.763 3.983,-14.328c5.815,-8.565 17.207,-16.73 17.286,-16.73Z" style="fill:#ffbf74;"/></g></g></svg>