<?xml version="1.0" encoding="UTF-8" standalone="no"?><!DOCTYPE svg PUBLIC "-//W3C//DTD SVG 1.1//EN" "http://www.w3.org/Graphics/SVG/1.1/DTD/svg11.dtd"><svg width="100%" height="100%" viewBox="0 0 655 800" version="1.1" xmlns="http://www.w3.org/2000/svg" xmlns:xlink="http://www.w3.org/1999/xlink" xml:space="preserve" xmlns:serif="http://www.serif.com/" style="fill-rule:evenodd;clip-rule:evenodd;stroke-linejoin:round;stroke-miterlimit:2;"><path d="M633.756,799.317c11.601,0 21.004,-9.403 21.004,-21.004l0,-757.309c0,-11.6 -9.403,-21.004 -21.004,-21.004l-612.752,0c-11.6,0 -21.004,9.404 -21.004,21.004c0,112.681 -0,644.628 -0,757.309c-0,11.601 9.404,21.004 21.004,21.004l612.752,0Z" style="fill:#fff;"/><g><path d="M393.139,461.961c-0,-1.853 -0.955,-3.574 -2.526,-4.556c-1.571,-0.981 -3.537,-1.083 -5.202,-0.271c-12.491,6.098 -37.109,18.114 -50.874,24.833c-6.252,3.052 -13.563,3.041 -19.806,-0.029c-13.484,-6.63 -37.35,-18.366 -49.607,-24.394c-1.665,-0.818 -3.634,-0.72 -5.209,0.261c-1.575,0.98 -2.532,2.704 -2.532,4.559c-0,2.007 -0,4.22 -0,6.474c-0,11.326 6.437,21.667 16.599,26.667c11.583,5.698 26.841,13.204 37.644,18.519c8.428,4.147 18.31,4.117 26.713,-0.08c10.983,-5.485 26.604,-13.287 38.359,-19.158c10.075,-5.031 16.441,-15.326 16.441,-26.587l-0,-6.238Z" style="fill:#617bbc;fill-rule:nonzero;"/><path d="M461.882,365.464c0,-1.852 -0.954,-3.574 -2.525,-4.555c-1.571,-0.982 -3.537,-1.084 -5.202,-0.272c-23.409,11.427 -93.539,45.659 -119.617,58.389c-6.251,3.052 -13.563,3.041 -19.806,-0.029c-25.867,-12.72 -95.095,-46.762 -118.35,-58.198c-1.665,-0.818 -3.634,-0.72 -5.209,0.26c-1.575,0.981 -2.532,2.705 -2.532,4.56c0,2.006 0,4.219 0,6.472c0,11.327 6.438,21.669 16.602,26.668c27.372,13.463 81.429,40.051 106.462,52.363c8.384,4.124 18.209,4.117 26.588,-0.02c25.132,-12.409 79.563,-39.285 107.028,-52.846c10.141,-5.007 16.561,-15.337 16.561,-26.647l0,-6.145Z" style="fill:#617bbc;fill-rule:nonzero;"/><path d="M359.317,333.966c-0,3.215 -1.832,6.149 -4.721,7.56c-6.608,3.228 -18.536,9.053 -25.032,12.227c-2.849,1.391 -6.182,1.387 -9.027,-0.012c-6.414,-3.154 -18.113,-8.906 -24.63,-12.11c-2.877,-1.415 -4.7,-4.343 -4.7,-7.55c-0,-16.63 -0,-68.297 -0,-88.005c-0,-1.666 0.859,-3.215 2.273,-4.096c1.415,-0.881 3.184,-0.971 4.68,-0.237c6.368,3.126 15.667,7.691 21.518,10.562c3.445,1.692 7.48,1.69 10.925,-0.005c5.903,-2.904 15.327,-7.541 21.757,-10.705c1.496,-0.736 3.266,-0.648 4.681,0.233c1.415,0.881 2.276,2.431 2.276,4.098c-0,19.717 -0,71.388 -0,88.04Zm34.181,-105.275c0,-4.242 -2.411,-8.115 -6.217,-9.987c-6.661,-3.275 -17.096,-8.407 -23.205,-11.412c-3.097,-1.523 -6.726,-1.523 -9.823,0.001c-6.313,3.105 -17.242,8.48 -23.812,11.711c-3.445,1.695 -7.483,1.696 -10.929,0.002c-6.568,-3.228 -17.491,-8.597 -23.801,-11.699c-3.096,-1.521 -6.723,-1.521 -9.818,0.001c-5.989,2.944 -16.12,7.924 -22.648,11.133c-3.808,1.871 -6.22,5.745 -6.22,9.987c0,22.601 0,94.14 0,119.026c0,5.285 3.005,10.111 7.749,12.442c13.674,6.721 41.815,20.551 54.251,26.663c3.872,1.903 8.407,1.902 12.278,-0.002c12.47,-6.135 40.741,-20.044 54.451,-26.789c4.741,-2.332 7.744,-7.156 7.744,-12.439l0,-118.638Z" style="fill:#faa537;fill-rule:nonzero;"/><path d="M442.155,164.076c-8.86,4.359 -14.473,13.375 -14.473,23.25l0,35.995c0,9.325 5.351,17.822 13.759,21.853c5.213,2.499 10.857,5.204 14.891,7.137c1.201,0.576 2.612,0.495 3.739,-0.215c1.127,-0.709 1.81,-1.947 1.81,-3.278c0,-11.696 0,-37.221 0,-51.289c0,-5.992 3.406,-11.463 8.783,-14.109c4.903,-2.411 11.011,-5.416 16.009,-7.875c2.019,-0.993 4.408,-0.874 6.318,0.315c1.91,1.19 3.071,3.28 3.071,5.531l0,82.975c0,4.794 -2.736,9.168 -7.047,11.265c-11.324,5.507 -33.749,16.415 -48.096,23.393c-8.05,3.915 -13.165,12.074 -13.183,21.026c-0.008,4.464 -0.017,9.14 -0.024,12.745c-0.003,1.359 0.697,2.623 1.85,3.342c1.153,0.719 2.596,0.792 3.815,0.192c15.473,-7.614 58.77,-28.918 81.882,-40.29c9.174,-4.514 14.985,-13.849 14.985,-24.073c-0,-25.877 -0,-75.35 -0,-101.045c-0,-10.043 -5.709,-19.212 -14.721,-23.643c-3.067,-1.508 -6.24,-3.069 -9.117,-4.483c-6.623,-3.257 -14.381,-3.256 -21.003,0.002c-11.579,5.697 -30.284,14.9 -43.248,21.279Z" style="fill:#ffa737;fill-rule:nonzero;"/><path d="M135.005,147.008c-9.012,4.431 -14.722,13.601 -14.722,23.644c0,25.77 0,75.471 0,101.457c0,10.253 5.844,19.61 15.057,24.108c23.141,11.3 66.391,32.419 81.827,39.956c1.218,0.595 2.656,0.52 3.806,-0.198c1.15,-0.718 1.848,-1.978 1.848,-3.333c0,-3.506 0,-8.029 0,-12.363c0,-8.93 -5.076,-17.084 -13.089,-21.026c-14.38,-7.073 -36.935,-18.168 -48.27,-23.743c-4.284,-2.107 -6.998,-6.466 -6.998,-11.24c0,-17.984 0,-62.372 0,-82.683c0,-2.249 1.16,-4.339 3.068,-5.528c1.909,-1.19 4.295,-1.311 6.315,-0.322c4.991,2.448 11.091,5.439 15.991,7.841c5.387,2.642 8.802,8.118 8.802,14.118c-0,14.042 -0,39.48 -0,51.204c-0,1.338 0.691,2.582 1.827,3.289c1.136,0.707 2.557,0.778 3.757,0.188c4.085,-2.01 9.807,-4.825 15.061,-7.409c8.287,-4.077 13.536,-12.509 13.536,-21.745l0,-35.625c0,-9.876 -5.614,-18.893 -14.475,-23.252c-13.105,-6.445 -32.094,-15.785 -43.793,-21.539c-6.621,-3.257 -14.378,-3.257 -20.999,-0.002c-2.707,1.331 -5.67,2.788 -8.549,4.203Z" style="fill:#ffa737;fill-rule:nonzero;"/><path d="M453.689,116.843c1.521,0.749 2.485,2.297 2.485,3.993c-0,1.696 -0.964,3.244 -2.486,3.992c-23.587,11.597 -92.087,45.277 -118.267,58.149c-6.518,3.205 -14.156,3.196 -20.667,-0.024c-26.125,-12.919 -94.433,-46.7 -117.945,-58.327c-1.518,-0.751 -2.479,-2.3 -2.477,-3.994c0.002,-1.694 0.966,-3.24 2.487,-3.988c4.696,-2.309 10.651,-5.235 15.643,-7.689c6.328,-3.111 13.741,-3.111 20.069,0.001c19.251,9.468 61.241,30.118 81.353,40.009c7.046,3.465 15.302,3.466 22.348,0c20.112,-9.89 62.102,-30.539 81.356,-40.007c6.329,-3.113 13.745,-3.112 20.074,0.001c5.104,2.511 11.225,5.522 16.027,7.884Z" style="fill:#faa537;fill-rule:nonzero;"/><path d="M315.914,82.711c-15.538,-7.644 -33.744,-7.644 -49.282,0.001c-1.069,0.526 -2.089,1.027 -3.037,1.494c-1.218,0.599 -1.99,1.839 -1.99,3.197c0.001,1.357 0.772,2.597 1.991,3.196c11.094,5.458 33.894,16.674 48.392,23.806c8.247,4.057 17.911,4.057 26.158,0.001c14.595,-7.179 37.622,-18.504 48.785,-23.995c1.219,-0.599 1.991,-1.839 1.991,-3.197c-0,-1.357 -0.772,-2.597 -1.99,-3.197c-0.937,-0.461 -1.944,-0.957 -2.999,-1.476c-15.486,-7.622 -33.627,-7.65 -49.137,-0.077c-1.547,0.756 -2.994,1.462 -4.274,2.087c-3.441,1.681 -7.466,1.675 -10.902,-0.016c-1.123,-0.553 -2.374,-1.168 -3.706,-1.824Z" style="fill:#faa537;fill-rule:nonzero;"/><g transform="matrix(0.796225,0,0,0.796225,-205.523,-780.503)"><text x="488.275px" y="1764.81px" style="font-family:'Montserrat-Bold', 'Montserrat';font-weight:700;font-size:65.03px;fill:#617bbc;">Y<tspan x="535.942px 589.462px 637.13px 693.446px 741.438px 797.754px " y="1764.81px 1764.81px 1764.81px 1764.81px 1764.81px 1764.81px ">AYASAN</tspan></text><text x="360.783px" y="1829.84px" style="font-family:'Montserrat-Bold', 'Montserrat';font-weight:700;font-size:65.03px;fill:#617bbc;">F<tspan x="406.955px 462.621px 524.009px 551.842px 610.89px 669.937px 726.254px 751.16px 798.177px 845.844px 902.161px 956.461px " y="1829.84px 1829.84px 1829.84px 1829.84px 1829.84px 1829.84px 1829.84px 1829.84px 1829.84px 1829.84px 1829.84px 1829.84px ">AQIHNA SYARI</tspan></text><text x="447.631px" y="1894.87px" style="font-family:'Montserrat-Bold', 'Montserrat';font-weight:700;font-size:65.03px;fill:#617bbc;">I<tspan x="475.464px 534.512px 594.73px 656.118px 715.166px 765.304px 813.297px 841.13px " y="1894.87px 1894.87px 1894.87px 1894.87px 1894.87px 1894.87px 1894.87px 1894.87px ">NDONESIA</tspan></text></g></g></svg>