<?xml version="1.0" encoding="UTF-8" standalone="no"?><!DOCTYPE svg PUBLIC "-//W3C//DTD SVG 1.1//EN" "http://www.w3.org/Graphics/SVG/1.1/DTD/svg11.dtd"><svg width="100%" height="100%" viewBox="0 0 698 698" version="1.1" xmlns="http://www.w3.org/2000/svg" xmlns:xlink="http://www.w3.org/1999/xlink" xml:space="preserve" xmlns:serif="http://www.serif.com/" style="fill-rule:evenodd;clip-rule:evenodd;stroke-linejoin:round;stroke-miterlimit:2;"><g><path d="M697.822,348.911c0,-192.698 -156.212,-348.911 -348.911,-348.911l-0,-0c-192.698,0 -348.911,156.213 -348.911,348.911l-0,0.021c0,192.698 156.213,348.911 348.911,348.911l0,0c192.699,0 348.911,-156.213 348.911,-348.911l0,-0.021Z" style="fill:#fff;"/><circle cx="348.911" cy="348.922" r="306.56" style="fill:#406eff;"/><ellipse cx="348.911" cy="343.709" rx="227.543" ry="224.15" style="fill:#fff;"/><path d="M399.217,468.254c0,-1.63 -0.84,-3.145 -2.222,-4.009c-1.383,-0.863 -3.113,-0.954 -4.578,-0.239c-9.105,4.445 -25.264,12.333 -35.255,17.209c-5.503,2.686 -11.938,2.677 -17.432,-0.025c-9.767,-4.803 -25.401,-12.491 -34.316,-16.875c-1.466,-0.72 -3.199,-0.634 -4.585,0.229c-1.386,0.863 -2.228,2.381 -2.228,4.013c-0,0.338 -0,0.681 -0,1.029c-0,9.968 5.665,19.07 14.609,23.47c7.55,3.714 16.642,8.187 23.735,11.676c7.418,3.65 16.115,3.624 23.51,-0.07c7.245,-3.618 16.592,-8.287 24.293,-12.133c8.867,-4.428 14.469,-13.488 14.469,-23.399l0,-0.876Z" style="fill:#406eff;fill-rule:nonzero;"/><path d="M450.168,396.735c-0,-1.63 -0.841,-3.146 -2.223,-4.009c-1.383,-0.864 -3.113,-0.954 -4.578,-0.239c-17.9,8.737 -66.306,32.366 -86.204,42.079c-5.503,2.686 -11.938,2.676 -17.433,-0.026c-19.729,-9.701 -67.491,-33.188 -85.265,-41.928c-1.465,-0.721 -3.198,-0.634 -4.584,0.229c-1.386,0.863 -2.229,2.38 -2.229,4.013c0,0.337 0,0.68 0,1.027c0,9.969 5.667,19.071 14.612,23.471c20.192,9.931 56.227,27.655 74.75,36.766c7.379,3.629 16.027,3.623 23.4,-0.018c18.606,-9.187 54.907,-27.111 75.178,-37.119c8.925,-4.408 14.576,-13.499 14.576,-23.453c-0,-0.268 -0,-0.532 -0,-0.793Z" style="fill:#406eff;fill-rule:nonzero;"/><path d="M374.15,371.465c0,2.83 -1.612,5.412 -4.154,6.653c-4.779,2.335 -12.569,6.139 -17.27,8.436c-2.508,1.224 -5.44,1.221 -7.944,-0.011c-4.636,-2.279 -12.268,-6.032 -16.975,-8.346c-2.533,-1.245 -4.137,-3.822 -4.137,-6.644c-0,-12.726 -0,-48.391 -0,-63.422c-0,-1.467 0.756,-2.83 2.001,-3.605c1.245,-0.776 2.801,-0.855 4.118,-0.208c4.375,2.147 10.179,4.996 14.223,6.981c3.033,1.488 6.584,1.487 9.615,-0.005c4.086,-2.01 9.977,-4.908 14.4,-7.085c1.317,-0.648 2.874,-0.57 4.12,0.206c1.246,0.775 2.003,2.138 2.003,3.606c0,15.037 0,50.703 0,63.444Zm25.334,-76.333c-0,-3.733 -2.122,-7.142 -5.472,-8.789c-4.684,-2.303 -11.334,-5.574 -15.652,-7.698c-2.726,-1.34 -5.92,-1.34 -8.646,0.001c-4.5,2.213 -11.532,5.672 -16.206,7.971c-3.033,1.491 -6.586,1.492 -9.619,0.001c-4.672,-2.296 -11.7,-5.751 -16.199,-7.962c-2.724,-1.339 -5.916,-1.339 -8.641,0c-4.221,2.076 -10.662,5.242 -15.239,7.492c-3.351,1.647 -5.474,5.056 -5.474,8.79c-0,17.354 -0,66.977 -0,86.054c-0,4.652 2.645,8.899 6.819,10.95c10.149,4.988 29.022,14.264 38.28,18.814c3.407,1.674 7.399,1.674 10.806,-0.003c9.285,-4.567 28.25,-13.898 38.428,-18.905c4.172,-2.053 6.815,-6.298 6.815,-10.948c-0,-19.029 -0,-68.455 -0,-85.768Z" style="fill:#faa537;fill-rule:nonzero;"/><path d="M437.557,245.29c-7.798,3.836 -12.737,11.772 -12.737,20.462c-0,7.008 -0,15.417 -0,22.317c-0,8.207 4.709,15.686 12.109,19.233c2.959,1.419 5.96,2.857 8.354,4.004c1.056,0.507 2.299,0.435 3.291,-0.189c0.991,-0.624 1.593,-1.714 1.593,-2.885c-0,-8.614 -0,-25.51 -0,-35.798c-0,-5.274 2.997,-10.09 7.73,-12.418c2.955,-1.453 6.336,-3.116 9.339,-4.594c1.777,-0.874 3.88,-0.769 5.561,0.277c1.681,1.047 2.703,2.887 2.703,4.868c0,15.246 0,45.391 0,58.954c0,4.22 -2.408,8.069 -6.202,9.914c-8.153,3.966 -22.633,11.009 -32.84,15.973c-7.084,3.446 -11.587,10.627 -11.602,18.506c-0.004,2.299 -0.009,4.582 -0.012,6.534c-0.003,1.196 0.613,2.308 1.628,2.941c1.015,0.633 2.284,0.697 3.357,0.169c11.604,-5.709 40.687,-20.02 57.817,-28.449c8.074,-3.972 13.188,-12.188 13.188,-21.187c0,-18.9 0,-51.517 0,-70.29c0,-8.839 -5.024,-16.909 -12.956,-20.809c-1.097,-0.539 -2.192,-1.078 -3.252,-1.599c-5.829,-2.866 -12.657,-2.865 -18.485,0.002c-8.012,3.942 -19.686,9.686 -28.584,14.064Z" style="fill:#ffa737;fill-rule:nonzero;"/><path d="M209.945,232.624c-7.932,3.899 -12.957,11.97 -12.957,20.809c0,18.831 0,51.605 0,70.588c0,9.024 5.143,17.258 13.252,21.218c17.148,8.373 46.194,22.556 57.769,28.208c1.072,0.524 2.338,0.458 3.35,-0.174c1.011,-0.632 1.626,-1.741 1.626,-2.934c0,-1.876 0,-4.058 0,-6.262c0,-7.859 -4.467,-15.035 -11.52,-18.504c-10.24,-5.037 -24.816,-12.207 -32.984,-16.225c-3.771,-1.855 -6.159,-5.691 -6.159,-9.893c-0,-13.506 -0,-43.542 -0,-58.745c-0,-1.98 1.021,-3.819 2.7,-4.866c1.68,-1.047 3.78,-1.154 5.557,-0.282c2.999,1.47 6.373,3.124 9.326,4.572c4.741,2.325 7.746,7.145 7.746,12.425c0,10.265 0,27.095 0,35.724c0,1.178 0.608,2.272 1.608,2.895c1,0.622 2.251,0.684 3.307,0.165c2.439,-1.2 5.501,-2.706 8.505,-4.184c7.294,-3.588 11.914,-11.01 11.914,-19.138l0,-22.067c0,-8.691 -4.941,-16.627 -12.74,-20.464c-9.009,-4.431 -20.879,-10.269 -28.987,-14.257c-5.827,-2.866 -12.654,-2.867 -18.482,-0.001c-0.925,0.455 -1.876,0.922 -2.831,1.392Z" style="fill:#ffa737;fill-rule:nonzero;"/><path d="M442.967,210.717c1.339,0.659 2.187,2.022 2.187,3.515c-0,1.492 -0.849,2.855 -2.188,3.513c-17.995,8.848 -65.159,32.037 -85.09,41.837c-5.737,2.821 -12.459,2.813 -18.189,-0.021c-19.889,-9.836 -66.92,-33.094 -84.857,-41.965c-1.336,-0.661 -2.182,-2.023 -2.18,-3.515c0.002,-1.491 0.85,-2.851 2.189,-3.509c2.824,-1.389 6.101,-3 9.074,-4.461c5.569,-2.738 12.094,-2.737 17.663,0.002c14.301,7.033 42.429,20.866 57.349,28.203c6.201,3.05 13.467,3.05 19.668,0.001c14.92,-7.337 43.047,-21.169 57.351,-28.203c5.57,-2.74 12.097,-2.739 17.667,0.001c3.06,1.505 6.449,3.173 9.356,4.602Z" style="fill:#faa537;fill-rule:nonzero;"/><path d="M344.408,187.169c-13.046,-6.419 -28.332,-6.419 -41.379,0c0,0.001 -0,0.001 -0.001,0.001c-0.869,0.428 -1.42,1.313 -1.42,2.282c-0,0.97 0.551,1.855 1.42,2.282c7.712,3.794 23.392,11.508 34.227,16.837c7.258,3.571 15.763,3.571 23.022,0.001c10.916,-5.369 26.768,-13.166 34.527,-16.982c0.868,-0.427 1.418,-1.31 1.418,-2.277c-0,-0.967 -0.55,-1.851 -1.418,-2.278c-0.001,-0 -0.002,-0.001 -0.003,-0.001c-12.996,-6.396 -28.219,-6.42 -41.235,-0.065c-0.254,0.124 -0.502,0.245 -0.741,0.362c-2.561,1.25 -5.556,1.246 -8.113,-0.012c-0.1,-0.049 -0.201,-0.099 -0.304,-0.15Z" style="fill:#faa537;fill-rule:nonzero;"/><g><path d="M196.892,556.53l-4.781,6.729l11.874,8.392l-3.427,4.75l-11.874,-8.392l-6.695,9.262l-5.897,-4.195l18.33,-25.491l19.366,13.774l-3.427,4.75l-13.469,-9.579Zm31.879,40.612l-13.071,-6.492l-5.499,4.75l-6.694,-3.325l26.698,-21.691l6.376,3.167l-1.435,34.199l-6.854,-3.404l0.479,-7.204Zm0.478,-5.938l0.876,-12.903l-9.802,8.47l8.926,4.433Zm49.49,34.595c-1.354,0.871 -2.869,1.425 -4.383,1.584c-1.594,0.158 -3.267,-0 -4.941,-0.475c-2.231,-0.713 -4.064,-1.821 -5.579,-3.325c-1.514,-1.504 -3.028,-3.879 -4.542,-6.967c-2.63,-1.187 -4.782,-2.85 -6.456,-4.908c-1.673,-2.058 -2.789,-4.354 -3.267,-6.966c-0.478,-2.534 -0.319,-5.146 0.478,-7.838c0.957,-2.929 2.471,-5.304 4.702,-7.204c2.152,-1.9 4.702,-3.166 7.571,-3.72c2.949,-0.555 5.977,-0.317 9.086,0.633c3.108,0.95 5.738,2.533 7.81,4.671c2.072,2.058 3.427,4.512 4.064,7.283c0.717,2.85 0.638,5.7 -0.319,8.629c-1.115,3.483 -3.028,6.174 -5.817,8.154c-2.79,2.058 -5.978,3.008 -9.564,3.087c0.478,0.95 1.036,1.662 1.594,2.217c0.558,0.554 1.275,0.95 1.992,1.187c1.913,0.554 3.746,0.317 5.659,-0.712l1.912,4.67Zm-21.597,-26.678c-0.638,1.821 -0.717,3.641 -0.398,5.304c0.398,1.741 1.195,3.166 2.311,4.433c1.195,1.267 2.709,2.217 4.463,2.771c1.753,0.554 3.506,0.633 5.18,0.237c1.673,-0.316 3.188,-1.108 4.463,-2.295c1.275,-1.188 2.152,-2.771 2.789,-4.592c0.558,-1.821 0.638,-3.642 0.319,-5.304c-0.399,-1.742 -1.116,-3.167 -2.311,-4.433c-1.196,-1.267 -2.63,-2.217 -4.383,-2.771c-1.833,-0.554 -3.507,-0.633 -5.181,-0.237c-1.753,0.316 -3.187,1.108 -4.463,2.295c-1.275,1.188 -2.231,2.771 -2.789,4.592Zm42.318,-4.671l7.093,1.346l-5.818,30.716l-7.172,-1.346l5.897,-30.716Zm49.89,5.462l-2.391,31.191l-7.253,-0.554l0.957,-12.745l-14.266,-1.109l-0.956,12.825l-7.332,-0.554l2.391,-31.191l7.332,0.554l-0.957,12.271l14.266,1.108l0.956,-12.35l7.253,0.554Zm40.246,-3.72l3.666,31.032l-5.898,0.713l-17.852,-17.1l2.232,18.92l-7.173,0.792l-3.586,-31.032l5.977,-0.713l17.772,17.021l-2.231,-18.842l7.093,-0.791Zm39.21,15.991l-14.106,3.879l-0.877,7.204l-7.173,1.979l5.101,-33.882l6.933,-1.9l21.996,26.441l-7.411,1.979l-4.463,-5.7Zm-3.666,-4.671l-8.049,-10.212l-1.594,12.825l9.643,-2.613Zm31.4,2.296c-1.116,0.396 -2.232,0.396 -3.347,-0.079c-1.037,-0.475 -1.833,-1.346 -2.312,-2.454c-0.398,-1.267 -0.398,-2.375 0.08,-3.404c0.478,-1.029 1.355,-1.742 2.471,-2.217c1.195,-0.396 2.311,-0.396 3.347,0.079c1.036,0.396 1.833,1.188 2.311,2.454c0.398,1.109 0.398,2.217 -0.08,3.325c-0.478,1.109 -1.275,1.821 -2.47,2.296Zm4.064,-36.416l6.535,-3.166l13.867,28.103l-6.535,3.167l-13.867,-28.104Zm18.011,-8.47l11.636,-8.233c2.789,-1.979 5.658,-3.167 8.527,-3.642c2.869,-0.475 5.659,-0.158 8.209,0.95c2.55,1.108 4.702,2.929 6.535,5.462c1.833,2.534 2.789,5.225 3.028,7.996c0.16,2.692 -0.478,5.383 -1.833,7.916c-1.355,2.613 -3.506,4.83 -6.296,6.809l-11.635,8.233l-18.171,-25.491Zm26.061,12.666c2.63,-1.821 4.144,-4.037 4.622,-6.491c0.558,-2.534 -0.08,-4.988 -1.833,-7.363c-1.674,-2.454 -3.825,-3.879 -6.376,-4.195c-2.55,-0.317 -5.1,0.395 -7.65,2.216l-5.42,3.8l11.237,15.833l5.42,-3.8Z" style="fill:#fff;fill-rule:nonzero;"/><path d="M107.793,446.413l10.201,-4.513l2.949,6.571l-10.201,4.591l-13.469,19.317l-3.188,-6.967l9.325,-13.379l-16.258,-1.9l-2.949,-6.491l23.59,2.771Zm-8.448,-39.187l4.065,13.933l7.252,0.713l2.152,7.124l-34.189,-4.591l-1.993,-6.887l26.22,-22.167l2.152,7.284l-5.659,4.591Zm-4.702,3.721l-10.121,8.075l12.911,1.425l-2.79,-9.5Zm-5.18,-35.07l10.998,-1.504l1.036,7.125l-11.157,1.583l-18.33,14.725l-1.116,-7.6l12.672,-10.212l-14.983,-6.334l-0.956,-7.045l21.836,9.262Zm2.869,-40.136l-0.159,14.566l6.694,2.85l-0.08,7.441l-31.32,-14.408l0.08,-7.124l31.719,-13.538l-0.16,7.6l-6.774,2.613Zm-5.499,2.216l-12.193,4.829l12.034,5.146l0.159,-9.975Zm15.7,-30.399c-0.478,2.375 -1.195,4.75 -2.231,6.887c-1.036,2.138 -2.232,3.879 -3.507,5.067l-5.021,-3.325c1.196,-1.187 2.232,-2.612 3.188,-4.354c0.877,-1.662 1.435,-3.483 1.753,-5.304c0.399,-1.979 0.319,-3.562 -0.159,-4.671c-0.398,-1.029 -1.116,-1.662 -2.152,-1.821c-0.717,-0.158 -1.434,0.08 -1.992,0.555c-0.558,0.475 -1.116,1.187 -1.514,1.979c-0.479,0.871 -1.036,2.058 -1.594,3.483c-0.957,2.296 -1.833,4.117 -2.63,5.541c-0.877,1.425 -1.993,2.534 -3.347,3.405c-1.435,0.87 -3.188,1.108 -5.26,0.791c-1.833,-0.316 -3.348,-1.029 -4.702,-2.296c-1.275,-1.187 -2.232,-2.849 -2.71,-4.908c-0.558,-2.137 -0.558,-4.591 -0.08,-7.362c0.319,-1.979 0.877,-3.879 1.674,-5.7c0.717,-1.821 1.674,-3.325 2.869,-4.591l5.021,3.087c-2.072,2.612 -3.347,5.304 -3.826,8.154c-0.318,1.979 -0.239,3.562 0.239,4.591c0.479,1.03 1.276,1.663 2.312,1.9c1.115,0.159 1.992,-0.316 2.63,-1.266c0.717,-1.029 1.514,-2.613 2.39,-4.829c0.957,-2.296 1.833,-4.117 2.63,-5.463c0.877,-1.425 1.913,-2.612 3.348,-3.483c1.354,-0.871 3.108,-1.108 5.18,-0.792c1.753,0.317 3.347,1.109 4.622,2.296c1.275,1.267 2.232,2.929 2.71,4.988c0.558,2.137 0.558,4.591 0.159,7.441Zm3.586,-44.411l-4.702,13.774l5.499,4.75l-2.39,7.046l-25.344,-23.274l2.391,-6.809l34.269,-3.166l-2.391,7.204l-7.332,0.475Zm-5.977,0.396l-12.99,0.791l9.802,8.55l3.188,-9.341Zm3.985,-55.574l27.814,14.566l-2.79,5.225l-24.227,4.988l16.975,8.866l-3.347,6.333l-27.893,-14.566l2.789,-5.304l24.227,-4.908l-16.895,-8.867l3.347,-6.333Zm25.423,-27.787l6.535,5.067l9.005,-11.4l4.623,3.642l-9.006,11.4l9.085,6.966l-4.542,5.7l-24.785,-19.237l14.664,-18.604l4.622,3.563l-10.201,12.903Zm46.383,-22.482l-10.6,9.974l2.55,6.729l-5.419,5.146l-11.396,-32.378l5.259,-4.908l31.879,13.22l-5.579,5.225l-6.694,-3.008Zm-5.42,-2.454l-11.954,-5.304l4.702,12.112l7.252,-6.808Zm53.396,-21.137c-0.08,1.662 -0.558,3.087 -1.355,4.512c-0.797,1.346 -1.912,2.533 -3.347,3.483c-1.913,1.346 -3.985,2.138 -6.057,2.375c-2.152,0.238 -4.941,0.079 -8.368,-0.633c-2.55,1.346 -5.18,1.979 -7.89,2.058c-2.63,0.079 -5.18,-0.475 -7.491,-1.662c-2.391,-1.188 -4.304,-2.929 -5.977,-5.225c-1.753,-2.533 -2.71,-5.225 -2.949,-8.075c-0.159,-2.85 0.399,-5.621 1.753,-8.233c1.355,-2.612 3.348,-4.908 6.057,-6.729c2.71,-1.9 5.499,-2.929 8.448,-3.325c2.949,-0.316 5.738,0.079 8.368,1.267c2.63,1.187 4.861,3.008 6.615,5.541c2.072,3.009 3.108,6.175 2.948,9.579c-0.079,3.404 -1.195,6.571 -3.347,9.342c1.036,0.237 1.993,0.237 2.71,0.158c0.797,-0.158 1.514,-0.475 2.152,-0.871c1.594,-1.108 2.55,-2.771 2.869,-4.829l4.861,1.267Zm-34.428,0.712c1.115,1.584 2.47,2.771 4.064,3.563c1.594,0.712 3.188,1.029 4.941,0.87c1.754,-0.158 3.347,-0.712 4.862,-1.82c1.514,-1.029 2.63,-2.375 3.427,-3.879c0.717,-1.584 1.036,-3.167 0.797,-4.909c-0.16,-1.741 -0.797,-3.404 -1.913,-4.987c-1.116,-1.583 -2.471,-2.771 -4.065,-3.562c-1.514,-0.713 -3.187,-1.03 -4.941,-0.871c-1.673,0.158 -3.267,0.712 -4.861,1.821c-1.514,1.029 -2.63,2.375 -3.347,3.879c-0.797,1.583 -1.036,3.166 -0.877,4.908c0.159,1.741 0.797,3.404 1.913,4.987Zm25.582,-34.595l6.376,-3.404l14.903,27.55l-6.376,3.483l-14.903,-27.629Zm47.02,-21.057l11.875,28.974l-6.695,2.691l-4.941,-11.874l-13.229,5.383l4.941,11.875l-6.774,2.77l-11.954,-28.974l6.774,-2.691l4.702,11.399l13.229,-5.383l-4.702,-11.4l6.774,-2.77Zm47.18,-9.817l5.1,30.874l-5.897,0.95l-18.649,-16.228l3.188,18.762l-7.093,1.187l-5.18,-30.874l5.977,-0.95l18.569,16.149l-3.188,-18.682l7.173,-1.188Zm37.855,21.929l-14.664,0.158l-2.71,6.729l-7.411,0.158l13.628,-31.507l7.172,-0.079l14.505,31.111l-7.651,0.08l-2.869,-6.65Zm-2.391,-5.463l-5.18,-11.953l-4.782,12.112l9.962,-0.159Zm43.673,15.754c-2.391,-0.396 -4.781,-1.108 -6.933,-2.137c-2.152,-1.029 -3.905,-2.217 -5.101,-3.484l3.347,-4.987c1.196,1.188 2.63,2.217 4.384,3.088c1.673,0.87 3.506,1.504 5.339,1.82c2.072,0.317 3.587,0.238 4.702,-0.158c1.036,-0.475 1.674,-1.187 1.833,-2.217c0.16,-0.712 -0.079,-1.345 -0.558,-1.9c-0.478,-0.633 -1.195,-1.108 -1.992,-1.583c-0.877,-0.396 -2.072,-0.95 -3.507,-1.583c-2.311,-0.95 -4.144,-1.821 -5.578,-2.613c-1.435,-0.791 -2.55,-1.9 -3.427,-3.324c-0.877,-1.425 -1.116,-3.167 -0.797,-5.225c0.319,-1.742 1.036,-3.325 2.311,-4.592c1.196,-1.346 2.869,-2.216 4.941,-2.771c2.152,-0.475 4.623,-0.554 7.412,-0.079c1.992,0.317 3.905,0.871 5.738,1.663c1.833,0.791 3.347,1.741 4.622,2.85l-3.108,5.066c-2.63,-2.058 -5.339,-3.404 -8.208,-3.879c-1.993,-0.317 -3.587,-0.237 -4.623,0.238c-1.036,0.554 -1.673,1.266 -1.913,2.374c-0.159,1.03 0.319,1.9 1.276,2.613c1.036,0.712 2.63,1.504 4.861,2.375c2.311,0.95 4.144,1.821 5.499,2.612c1.435,0.792 2.63,1.9 3.507,3.246c0.876,1.425 1.115,3.167 0.797,5.225c-0.319,1.741 -1.116,3.246 -2.312,4.591c-1.195,1.267 -2.948,2.138 -5.02,2.692c-2.152,0.554 -4.623,0.554 -7.492,0.079Zm39.768,-2.612l-3.188,10.608l-7.013,-2.059l3.268,-10.687l-5.898,-22.72l7.412,2.138l4.064,15.753l12.034,-10.924l6.854,1.979l-17.533,15.912Zm35.624,18.999l-13.309,-6.095l-5.34,4.908l-6.774,-3.088l25.901,-22.562l6.535,3.009l-0.398,34.199l-6.934,-3.167l0.319,-7.204Zm0.159,-5.937l0.558,-12.983l-9.563,8.787l9.005,4.196Zm29.966,31.745l-0.399,-10.608l-0.318,-0.238l-5.26,-3.404l-4.782,7.362l-6.137,-3.879l17.055,-26.361l11.476,7.362c2.312,1.504 4.065,3.167 5.34,5.066c1.195,1.821 1.833,3.8 1.833,5.859c-0,1.979 -0.638,3.958 -1.913,5.937c-1.195,1.979 -2.789,3.325 -4.622,4.117c-1.913,0.87 -3.905,1.108 -6.137,0.712l0.479,12.271l-6.615,-4.196Zm10.759,-16.862c0.956,-1.504 1.195,-2.929 0.717,-4.354c-0.478,-1.346 -1.594,-2.692 -3.427,-3.8l-5.021,-3.246l-5.897,9.183l5.021,3.167c1.833,1.187 3.426,1.741 4.941,1.504c1.514,-0.158 2.709,-1.029 3.666,-2.454Zm23.669,4.037l5.579,4.75l-20.562,23.67l-5.578,-4.75l20.561,-23.67Zm25.821,24.145l5.021,5.304l-22.952,21.375l-4.941,-5.225l22.872,-21.454Zm32.516,41.087l-25.662,18.128l-3.506,-4.829l6.455,-23.749l-15.541,11.083l-4.144,-5.858l25.582,-18.129l3.507,4.829l-6.455,23.67l15.54,-11.003l4.224,5.858Zm7.97,13.933l6.774,12.508c1.673,3.008 2.47,5.937 2.55,8.866c0.159,2.929 -0.558,5.542 -1.913,7.916c-1.434,2.455 -3.506,4.355 -6.296,5.859c-2.709,1.425 -5.499,2.137 -8.288,1.979c-2.789,-0.159 -5.339,-1.109 -7.73,-2.771c-2.391,-1.662 -4.384,-4.037 -6.057,-7.046l-6.774,-12.508l27.734,-14.803Zm-15.86,24.224c1.515,2.771 3.507,4.512 5.898,5.304c2.47,0.871 4.941,0.554 7.651,-0.871c2.629,-1.425 4.223,-3.325 4.941,-5.779c0.637,-2.454 0.239,-5.066 -1.275,-7.837l-3.188,-5.858l-17.135,9.183l3.108,5.858Zm9.643,42.907c-0.876,-3.087 -1.036,-6.096 -0.478,-9.025c0.638,-2.85 1.913,-5.383 3.905,-7.441c1.913,-2.138 4.384,-3.642 7.412,-4.433c2.949,-0.871 5.818,-0.95 8.607,-0.238c2.789,0.713 5.26,2.138 7.332,4.275c2.072,2.058 3.586,4.671 4.463,7.837c0.956,3.088 1.116,6.096 0.478,8.946c-0.637,2.929 -1.912,5.383 -3.905,7.521c-1.913,2.137 -4.383,3.641 -7.332,4.512c-2.949,0.792 -5.897,0.871 -8.687,0.158c-2.789,-0.712 -5.18,-2.137 -7.332,-4.275c-2.072,-2.058 -3.586,-4.67 -4.463,-7.837Zm5.978,-1.662c0.478,1.741 1.354,3.245 2.63,4.433c1.195,1.187 2.709,1.979 4.383,2.375c1.753,0.396 3.506,0.316 5.419,-0.238c1.833,-0.554 3.427,-1.425 4.622,-2.691c1.276,-1.267 2.072,-2.692 2.471,-4.354c0.398,-1.663 0.319,-3.404 -0.159,-5.146c-0.558,-1.821 -1.435,-3.246 -2.71,-4.512c-1.195,-1.188 -2.71,-1.98 -4.383,-2.296c-1.754,-0.396 -3.507,-0.317 -5.42,0.158c-1.833,0.554 -3.347,1.504 -4.622,2.692c-1.195,1.266 -1.992,2.691 -2.47,4.354c-0.399,1.662 -0.319,3.404 0.239,5.225Zm35.942,52.169l-31.161,4.275l-0.876,-5.858l16.815,-18.05l-18.967,2.613l-0.956,-7.125l31.16,-4.275l0.797,5.937l-16.736,18.05l18.888,-2.692l1.036,7.125Zm-26.14,40.77l-5.818,-0.079l0.319,-24.225l31.48,0.396l-0.319,23.67l-5.818,-0.079l0.239,-16.466l-6.853,-0.079l-0.24,14.566l-5.658,-0.079l0.239,-14.566l-7.332,-0.08l-0.239,17.021Zm-9.723,20.345c0.399,-2.454 1.116,-4.75 2.152,-6.887c1.036,-2.217 2.232,-3.879 3.507,-5.067l5.02,3.325c-1.195,1.108 -2.231,2.612 -3.108,4.275c-0.956,1.742 -1.514,3.562 -1.833,5.383c-0.318,1.979 -0.239,3.563 0.16,4.592c0.478,1.108 1.195,1.741 2.152,1.9c0.796,0.079 1.434,-0.08 1.992,-0.555c0.637,-0.554 1.116,-1.187 1.594,-2.058c0.398,-0.791 0.956,-1.979 1.594,-3.483c0.956,-2.217 1.833,-4.037 2.63,-5.462c0.797,-1.425 1.912,-2.534 3.347,-3.404c1.434,-0.871 3.188,-1.188 5.26,-0.792c1.753,0.317 3.347,1.029 4.622,2.216c1.275,1.267 2.232,2.85 2.789,4.988c0.479,2.058 0.558,4.512 0.08,7.362c-0.319,1.979 -0.877,3.879 -1.673,5.7c-0.797,1.742 -1.754,3.325 -2.869,4.592l-5.101,-3.088c2.072,-2.612 3.347,-5.304 3.825,-8.154c0.399,-2.058 0.319,-3.562 -0.239,-4.591c-0.478,-1.109 -1.195,-1.742 -2.311,-1.9c-1.036,-0.159 -1.913,0.237 -2.63,1.266c-0.717,1.029 -1.514,2.613 -2.391,4.829c-0.956,2.217 -1.833,4.038 -2.63,5.463c-0.797,1.425 -1.912,2.533 -3.347,3.404c-1.355,0.871 -3.108,1.187 -5.18,0.791c-1.753,-0.237 -3.268,-1.029 -4.622,-2.216c-1.275,-1.267 -2.152,-2.929 -2.71,-5.067c-0.558,-2.058 -0.558,-4.512 -0.08,-7.362Zm25.901,31.27l-2.072,6.887l-30.204,-8.708l2.072,-6.966l30.204,8.787Zm-37.217,31.27l5.18,-13.537l-5.26,-4.988l2.63,-6.966l24.466,24.145l-2.55,6.729l-34.508,1.9l2.789,-7.046l7.253,-0.237Zm5.977,-0.158l13.07,-0.396l-9.484,-8.867l-3.586,9.263Z" style="fill:#fff;fill-rule:nonzero;"/><path d="M567.874,531.514c-0.08,-0.158 -14.026,0.317 -23.669,4.117c-9.564,3.8 -11.317,9.341 -11.237,9.579c0.159,0.237 5.18,3.166 14.823,-0.633c9.643,-3.8 20.083,-12.983 20.083,-13.063Zm-438.324,0c0.08,-0.158 14.026,0.317 23.669,4.117c9.564,3.8 11.317,9.341 11.237,9.579c-0.159,0.237 -5.18,3.166 -14.823,-0.633c-9.643,-3.8 -20.083,-12.983 -20.083,-13.063Zm411.786,-30.715c0.079,-0 3.108,13.616 1.753,23.749c-1.275,10.212 -6.296,13.22 -6.535,13.22c-0.319,-0.079 -4.383,-4.195 -3.029,-14.408c1.355,-10.212 7.731,-22.561 7.811,-22.561Zm-385.248,-0c-0.079,-0 -3.108,13.616 -1.753,23.749c1.275,10.212 6.296,13.22 6.535,13.22c0.319,-0.079 4.383,-4.195 3.029,-14.408c-1.355,-10.212 -7.731,-22.561 -7.811,-22.561Zm424.219,14.724c-0,-0.079 -13.947,0.396 -23.59,4.196c-9.643,3.721 -11.317,9.341 -11.237,9.579c0.079,0.237 5.18,3.087 14.823,-0.713c9.563,-3.8 20.083,-12.983 20.004,-13.062Zm-463.19,0c0,-0.079 13.947,0.396 23.59,4.196c9.643,3.721 11.317,9.341 11.237,9.579c-0.079,0.237 -5.18,3.087 -14.823,-0.713c-9.564,-3.8 -20.083,-12.983 -20.004,-13.062Zm26.459,-30.637c-0.079,0 -3.108,13.538 -1.753,23.75c1.355,10.212 6.376,13.22 6.615,13.141c0.239,0 4.303,-4.196 2.948,-14.408c-1.275,-10.133 -7.65,-22.483 -7.81,-22.483Zm410.272,0c0.079,0 3.108,13.538 1.753,23.75c-1.355,10.212 -6.376,13.22 -6.615,13.141c-0.239,0 -4.303,-4.196 -2.948,-14.408c1.275,-10.133 7.65,-22.483 7.81,-22.483Zm26.379,-1.504c0.08,0.08 -3.427,13.537 -9.324,22.008c-5.818,8.471 -11.716,8.867 -11.875,8.708c-0.239,-0.158 -1.913,-5.7 3.905,-14.17c5.897,-8.471 17.214,-16.546 17.294,-16.546Zm-463.03,0c-0.08,0.08 3.427,13.537 9.324,22.008c5.818,8.471 11.716,8.867 11.875,8.708c0.239,-0.158 1.913,-5.7 -3.905,-14.17c-5.898,-8.471 -17.214,-16.546 -17.294,-16.546Z" style="fill:#fcbd73;"/></g></g></svg>