<?xml version="1.0" encoding="UTF-8" standalone="no"?><!DOCTYPE svg PUBLIC "-//W3C//DTD SVG 1.1//EN" "http://www.w3.org/Graphics/SVG/1.1/DTD/svg11.dtd"><svg width="100%" height="100%" viewBox="0 0 655 800" version="1.1" xmlns="http://www.w3.org/2000/svg" xmlns:xlink="http://www.w3.org/1999/xlink" xml:space="preserve" xmlns:serif="http://www.serif.com/" style="fill-rule:evenodd;clip-rule:evenodd;stroke-linejoin:round;stroke-miterlimit:2;"><g><path d="M633.756,799.317c11.601,0 21.004,-9.403 21.004,-21.004c0,-112.681 0,-644.628 0,-757.309c0,-11.6 -9.403,-21.004 -21.004,-21.004c-98.526,-0 -514.226,-0 -612.752,-0c-11.6,0 -21.004,9.404 -21.004,21.004c0,112.681 0,644.628 0,757.309c-0,11.601 9.404,21.004 21.004,21.004c98.526,0 514.226,0 612.752,0Z" style="fill:#fff;"/><g><path d="M394.934,484.586c-0,-1.852 -0.955,-3.574 -2.526,-4.555c-1.571,-0.982 -3.536,-1.084 -5.201,-0.272c-12.492,6.098 -37.11,18.115 -50.874,24.834c-6.252,3.051 -13.564,3.041 -19.807,-0.029c-13.484,-6.631 -37.349,-18.367 -49.607,-24.394c-1.665,-0.819 -3.634,-0.721 -5.209,0.26c-1.575,0.98 -2.532,2.704 -2.532,4.559c-0,2.007 -0,4.22 -0,6.474c-0,11.326 6.437,21.667 16.6,26.667c11.583,5.698 26.84,13.204 37.643,18.519c8.429,4.147 18.31,4.117 26.713,-0.08c10.983,-5.485 26.604,-13.286 38.36,-19.158c10.075,-5.031 16.44,-15.325 16.44,-26.587c-0,-2.17 -0,-4.3 -0,-6.238Z" style="fill:#617bbc;fill-rule:nonzero;"/><path d="M463.678,388.089c-0,-1.852 -0.955,-3.574 -2.526,-4.555c-1.571,-0.981 -3.537,-1.084 -5.201,-0.271c-23.41,11.427 -93.539,45.659 -119.617,58.388c-6.252,3.052 -13.564,3.041 -19.807,-0.029c-25.866,-12.72 -95.094,-46.762 -118.349,-58.198c-1.665,-0.818 -3.635,-0.72 -5.209,0.261c-1.575,0.98 -2.533,2.704 -2.533,4.559c0,2.007 0,4.219 0,6.472c0,11.327 6.439,21.669 16.603,26.668c27.372,13.463 81.428,40.051 106.461,52.363c8.385,4.124 18.21,4.117 26.588,-0.02c25.132,-12.409 79.564,-39.285 107.028,-52.846c10.142,-5.007 16.562,-15.337 16.562,-26.647c-0,-2.138 -0,-4.234 -0,-6.145Z" style="fill:#617bbc;fill-rule:nonzero;"/><path d="M361.112,356.592c0,3.214 -1.832,6.148 -4.72,7.559c-6.609,3.228 -18.536,9.054 -25.033,12.227c-2.849,1.391 -6.181,1.387 -9.026,-0.012c-6.414,-3.153 -18.113,-8.906 -24.63,-12.11c-2.878,-1.415 -4.701,-4.343 -4.701,-7.549c0,-16.631 0,-68.298 0,-88.006c0,-1.666 0.86,-3.215 2.274,-4.096c1.414,-0.881 3.183,-0.971 4.679,-0.236c6.368,3.125 15.668,7.69 21.518,10.562c3.446,1.691 7.481,1.689 10.925,-0.006c5.903,-2.904 15.328,-7.541 21.757,-10.705c1.496,-0.736 3.266,-0.647 4.681,0.234c1.416,0.881 2.276,2.43 2.276,4.097c0,19.718 0,71.388 0,88.041Zm34.182,-105.276c-0,-4.242 -2.412,-8.114 -6.218,-9.986c-6.661,-3.276 -17.096,-8.408 -23.205,-11.412c-3.097,-1.524 -6.726,-1.524 -9.823,-0c-6.313,3.105 -17.241,8.48 -23.811,11.711c-3.446,1.695 -7.483,1.696 -10.929,0.002c-6.568,-3.228 -17.491,-8.597 -23.801,-11.698c-3.096,-1.522 -6.723,-1.522 -9.819,-0c-5.989,2.944 -16.119,7.924 -22.648,11.133c-3.807,1.872 -6.219,5.745 -6.219,9.988c-0,22.6 -0,94.139 -0,119.025c-0,5.285 3.005,10.111 7.748,12.442c13.675,6.721 41.816,20.551 54.252,26.663c3.871,1.903 8.407,1.902 12.278,-0.002c12.47,-6.135 40.741,-20.044 54.451,-26.789c4.741,-2.332 7.744,-7.156 7.744,-12.439c-0,-24.826 -0,-96.089 -0,-118.638Z" style="fill:#faa537;fill-rule:nonzero;"/><path d="M443.95,186.701c-8.86,4.359 -14.472,13.375 -14.472,23.25l-0,35.995c-0,9.325 5.35,17.823 13.759,21.853c5.213,2.499 10.857,5.204 14.891,7.138c1.2,0.575 2.612,0.494 3.739,-0.215c1.126,-0.71 1.81,-1.948 1.81,-3.279c-0,-11.696 -0,-37.221 -0,-51.289c-0,-5.992 3.406,-11.463 8.783,-14.108c4.902,-2.412 11.011,-5.417 16.008,-7.875c2.019,-0.994 4.408,-0.875 6.318,0.315c1.911,1.189 3.072,3.28 3.072,5.53c-0,20.367 -0,64.916 -0,82.975c-0,4.794 -2.736,9.168 -7.048,11.265c-11.323,5.507 -33.749,16.415 -48.096,23.393c-8.049,3.915 -13.165,12.075 -13.182,21.026c-0.009,4.464 -0.018,9.14 -0.025,12.745c-0.002,1.359 0.697,2.623 1.85,3.342c1.153,0.719 2.596,0.792 3.815,0.192c15.473,-7.614 58.77,-28.918 81.883,-40.29c9.173,-4.514 14.984,-13.849 14.984,-24.073c0,-25.877 0,-75.349 0,-101.045c0,-10.043 -5.709,-19.212 -14.721,-23.643c-3.067,-1.508 -6.239,-3.068 -9.117,-4.483c-6.622,-3.256 -14.381,-3.256 -21.002,0.002c-11.58,5.697 -30.284,14.9 -43.249,21.279Z" style="fill:#ffa737;fill-rule:nonzero;"/><path d="M136.801,169.633c-9.013,4.431 -14.722,13.601 -14.722,23.644c-0,25.77 -0,75.471 -0,101.457c-0,10.253 5.843,19.61 15.057,24.109c23.14,11.299 66.39,32.418 81.826,39.955c1.218,0.595 2.657,0.52 3.806,-0.198c1.15,-0.718 1.849,-1.977 1.849,-3.333c-0,-3.506 -0,-8.028 -0,-12.363c-0,-8.93 -5.076,-17.084 -13.09,-21.026c-14.379,-7.073 -36.934,-18.167 -48.27,-23.743c-4.283,-2.107 -6.997,-6.466 -6.997,-11.24c-0,-17.984 -0,-62.372 -0,-82.683c-0,-2.249 1.16,-4.339 3.068,-5.528c1.908,-1.19 4.295,-1.311 6.314,-0.321c4.991,2.447 11.091,5.438 15.992,7.84c5.387,2.642 8.801,8.119 8.801,14.118c0,14.043 0,39.481 0,51.204c0,1.339 0.691,2.582 1.827,3.289c1.136,0.708 2.557,0.778 3.758,0.188c4.085,-2.01 9.807,-4.825 15.06,-7.409c8.287,-4.076 13.537,-12.509 13.537,-21.745c-0,-10.61 -0,-24.79 -0,-35.625c-0,-9.876 -5.614,-18.893 -14.476,-23.252c-13.104,-6.445 -32.094,-15.785 -43.793,-21.539c-6.62,-3.257 -14.377,-3.257 -20.999,-0.002c-2.706,1.331 -5.67,2.788 -8.548,4.203Z" style="fill:#ffa737;fill-rule:nonzero;"/><path d="M455.484,139.468c1.522,0.749 2.486,2.297 2.486,3.993c-0.001,1.696 -0.965,3.244 -2.487,3.992c-23.586,11.597 -92.086,45.277 -118.267,58.149c-6.518,3.205 -14.156,3.196 -20.667,-0.023c-26.125,-12.92 -94.433,-46.701 -117.944,-58.328c-1.519,-0.751 -2.479,-2.3 -2.477,-3.994c0.002,-1.694 0.966,-3.24 2.486,-3.988c4.697,-2.308 10.651,-5.235 15.643,-7.689c6.328,-3.111 13.742,-3.11 20.069,0.001c19.251,9.468 61.241,30.118 81.354,40.009c7.046,3.466 15.301,3.466 22.348,0.001c20.112,-9.891 62.102,-30.54 81.355,-40.008c6.33,-3.113 13.746,-3.112 20.075,0.001c5.103,2.511 11.224,5.522 16.026,7.884Z" style="fill:#faa537;fill-rule:nonzero;"/><path d="M317.709,105.337c-15.538,-7.645 -33.744,-7.645 -49.282,-0c-1.069,0.526 -2.088,1.027 -3.036,1.494c-1.218,0.599 -1.99,1.839 -1.99,3.197c-0,1.357 0.772,2.597 1.99,3.196c11.095,5.458 33.894,16.674 48.393,23.806c8.247,4.057 17.91,4.058 26.158,0.001c14.594,-7.178 37.621,-18.504 48.785,-23.995c1.218,-0.599 1.99,-1.839 1.99,-3.196c0,-1.358 -0.771,-2.598 -1.989,-3.198c-0.937,-0.461 -1.944,-0.956 -3,-1.476c-15.486,-7.621 -33.627,-7.65 -49.137,-0.076c-1.546,0.755 -2.993,1.461 -4.274,2.087c-3.441,1.68 -7.466,1.674 -10.902,-0.017c-1.123,-0.552 -2.373,-1.168 -3.706,-1.823Z" style="fill:#faa537;fill-rule:nonzero;"/><g transform="matrix(0.971497,0,0,0.971497,-321.012,-1058.85)"><text x="418.335px" y="1764.81px" style="font-family:'Montserrat-Bold', 'Montserrat';font-weight:700;font-size:65.03px;fill:#617bbc;">F<tspan x="467.758px 526.676px 591.316px 622.4px 684.699px 746.998px " y="1764.81px 1764.81px 1764.81px 1764.81px 1764.81px 1764.81px ">AQIHNA</tspan></text><text x="808.647px" y="1764.81px" style="font-family:'Montserrat-Bold', 'Montserrat';font-weight:700;font-size:65.03px;fill:#faa537;">.</text><text x="835.439px" y="1764.81px" style="font-family:'Montserrat-Bold', 'Montserrat';font-weight:700;font-size:65.03px;fill:#617bbc;">I<tspan x="866.524px " y="1764.81px ">D</tspan></text></g><text x="70.451px" y="700.452px" style="font-family:'Montserrat-SemiBold', 'Montserrat';font-weight:600;font-size:28.762px;fill:#617bbc;">T<tspan x="86.184px 104.074px 115.923px 133.382px 153.228px " y="700.452px 700.452px 700.452px 700.452px 700.452px ">erang</tspan>i Umat den<tspan x="337.504px " y="700.452px ">g</tspan>an C<tspan x="423.33px " y="700.452px ">a</tspan>ha<tspan x="477.661px 493.796px " y="700.452px 700.452px ">ya</tspan> Ilmu</text></g></g></svg>